<?xml version="1.0" standalone="no"?>
<svg viewBox="0 0 200 200" xmlns="http://www.w3.org/2000/svg">
  <path fill="#F1C21B" d="M28.8,-55.8C35.7,-46,38.4,-34.9,43.5,-25.4C48.6,-15.8,56,-7.9,57.3,0.8C58.6,9.5,53.9,18.9,50.5,31.4C47.2,43.9,45.2,59.3,37,67.3C28.8,75.2,14.4,75.6,-1.1,77.5C-16.5,79.3,-33.1,82.6,-39.1,73.5C-45.2,64.3,-40.8,42.7,-45.9,28.3C-50.9,14,-65.5,7,-70,-2.6C-74.5,-12.2,-69,-24.4,-61.7,-34.9C-54.4,-45.3,-45.2,-53.9,-34.6,-61.5C-24.1,-69.2,-12,-75.9,-0.5,-75C11,-74.1,22,-65.6,28.8,-55.8Z" transform="translate(100 100)" />
</svg>
